<svg xmlns="http://www.w3.org/2000/svg" xmlns:svg="http://www.w3.org/2000/svg" id="svg2" width="48" height="48" version="1.1" viewBox="0 0 48 48"><metadata id="metadata7"/><g id="layer1" transform="translate(-384,-1004.3622)" style="display:inline"><path id="path6956" d="m 395.00001,1032.3621 a 4,3.9999981 0 0 0 -4,4 v 12 h 4 v -4 h 4 v 4 h 4 v -12 a 3.9999981,4 0 0 0 -4,-4 z m 1,3 h 2 a 0.9999995,1 0 0 1 1,1 v 5 h -4 v -5 a 1,0.9999995 0 0 1 1,-1 z" style="color:#000;display:inline;overflow:visible;visibility:visible;opacity:1;fill:#ff950d;fill-opacity:1;fill-rule:evenodd;stroke:none;stroke-width:4;stroke-linecap:butt;stroke-linejoin:round;stroke-miterlimit:4;stroke-dasharray:none;stroke-dashoffset:4.19999981;stroke-opacity:1;marker:none;enable-background:accumulate"/><path style="color:#000;display:inline;overflow:visible;visibility:visible;opacity:1;fill:#747474;fill-opacity:1;fill-rule:nonzero;stroke:none;stroke-width:5.61248589;stroke-linecap:round;stroke-linejoin:round;stroke-miterlimit:4;stroke-dasharray:none;stroke-dashoffset:0;stroke-opacity:1;marker:none;enable-background:accumulate" id="rect6960" d="M 10 6 L 10 12 L 10 20 L 16 20 L 16 12 L 32 12 L 32 16 L 27 16 L 35 24 L 43 16 L 38 16 L 38 12 L 38 6 L 10 6 z M 29 28 L 29 44 L 38 44 C 39.65685 44 41 42.6569 41 41 L 41 39 C 41 37.3432 39.65685 36 38 36 L 37 36 A 3 2.9999986 0 0 0 40 33 L 40 31 C 40 29.3432 38.65685 28 37 28 L 29 28 z M 33 31 L 35 31 C 35.55228 31 36 31.4477 36 32 L 36 33.5 C 36 34.0523 35.55228 34.5 35 34.5 L 33 34.5 L 33 31 z M 33 37.5 L 36 37.5 C 36.55228 37.5 37 37.9477 37 38.5 L 37 40 C 37 40.5523 36.55228 41 36 41 L 33 41 L 33 37.5 z" transform="translate(384,1004.3622)"/></g></svg>