<svg xmlns="http://www.w3.org/2000/svg" xmlns:svg="http://www.w3.org/2000/svg" id="svg2" width="48" height="48" version="1.1" viewBox="0 0 48 48"><metadata id="metadata7"/><g id="layer1" transform="translate(-384,-1004.3622)" style="display:inline"><path style="color:#000;display:inline;overflow:visible;visibility:visible;opacity:1;fill:#747474;fill-opacity:1;fill-rule:evenodd;stroke:none;stroke-width:15;stroke-linecap:butt;stroke-linejoin:round;stroke-miterlimit:4;stroke-dasharray:none;stroke-dashoffset:4.19999981;stroke-opacity:1;marker:none;enable-background:accumulate" id="rect10878" d="M 14 8 L 14 14 L 8 14 L 8 20 L 16 20 L 20 20 L 20 16 L 20 8 L 14 8 z M 28 8 L 28 16 L 28 20 L 32 20 L 40 20 L 40 14 L 34 14 L 34 8 L 28 8 z M 8 28 L 8 34 L 14 34 L 14 40 L 20 40 L 20 32 L 20 28 L 16 28 L 8 28 z M 28 28 L 28 32 L 28 40 L 34 40 L 34 34 L 40 34 L 40 28 L 32 28 L 28 28 z" transform="translate(384,1004.3622)"/></g></svg>