<svg xmlns="http://www.w3.org/2000/svg" xmlns:svg="http://www.w3.org/2000/svg" id="svg2" width="48" height="48" version="1.1" viewBox="0 0 48 48"><metadata id="metadata7"/><g id="layer1" transform="translate(-384,-1004.3622)" style="display:inline"><path style="color:#000;display:inline;overflow:visible;visibility:visible;opacity:1;fill:#747474;fill-opacity:1;fill-rule:nonzero;stroke:none;stroke-width:3;stroke-linecap:round;stroke-linejoin:round;stroke-miterlimit:4;stroke-dasharray:none;stroke-dashoffset:0;stroke-opacity:1;marker:none;enable-background:accumulate" id="rect11020" d="M 7 8 L 7 12 L 4 12 L 4 18 L 7 18 L 7 40 L 13 40 L 13 18 L 16 18 L 16 12 L 13 12 L 13 8 L 7 8 z M 21 8 L 21 30 L 18 30 L 18 36 L 21 36 L 21 40 L 27 40 L 27 36 L 30 36 L 30 30 L 27 30 L 27 8 L 21 8 z M 35 8 L 35 20 L 32 20 L 32 26 L 35 26 L 35 40 L 41 40 L 41 26 L 44 26 L 44 20 L 41 20 L 41 8 L 35 8 z" transform="translate(384,1004.3622)"/></g></svg>