<svg xmlns="http://www.w3.org/2000/svg" xmlns:svg="http://www.w3.org/2000/svg" id="svg2" width="48" height="48" version="1.1" viewBox="0 0 48 48"><metadata id="metadata7"/><g id="layer1" transform="translate(-384,-1004.3622)" style="display:inline"><path style="color:#000;display:inline;overflow:visible;visibility:visible;opacity:1;fill:#747474;fill-opacity:1;fill-rule:evenodd;stroke:none;stroke-width:15;stroke-linecap:butt;stroke-linejoin:round;stroke-miterlimit:4;stroke-dasharray:none;stroke-dashoffset:4.19999981;stroke-opacity:1;marker:none;enable-background:accumulate" id="path11393" d="M 4 8 L 4 12 L 4 20 L 10 20 L 10 14 L 16 14 L 16 8 L 8 8 L 4 8 z M 32 8 L 32 14 L 38 14 L 38 20 L 44 20 L 44 12 L 44 8 L 40 8 L 32 8 z M 4 28 L 4 36 L 4 40 L 8 40 L 16 40 L 16 34 L 10 34 L 10 28 L 4 28 z M 38 28 L 38 34 L 32 34 L 32 40 L 40 40 L 44 40 L 44 36 L 44 28 L 38 28 z" transform="translate(384,1004.3622)"/></g></svg>