<svg xmlns="http://www.w3.org/2000/svg" xmlns:svg="http://www.w3.org/2000/svg" id="svg2" width="48" height="48" version="1.1" viewBox="0 0 48 48"><metadata id="metadata7"/><g id="layer1" transform="translate(-384,-1004.3622)" style="display:inline"><path style="color:#000;display:inline;overflow:visible;visibility:visible;opacity:1;fill:#747474;fill-opacity:1;fill-rule:evenodd;stroke:none;stroke-width:15;stroke-linecap:butt;stroke-linejoin:round;stroke-miterlimit:4;stroke-dasharray:none;stroke-dashoffset:4.19999981;stroke-opacity:1;marker:none;enable-background:accumulate" id="ellipse11089" d="m 391.99999,1012.3622 c -2.216,0 -4,1.784 -4,4 v 4.5 h 4 v -4.5 h 32 v 24 h -12.5 v 4 h 12.5 c 2.216,0 4,-1.784 4,-4 v -24 c 0,-2.216 -1.784,-4 -4,-4 z m -4,12 v 3.5 a 16.5,16.5 0 0 1 16.5,16.5 h 3.5 a 20,19.999985 0 0 0 -20,-20 z m 0,7 v 3.5 a 9.5,9.5 0 0 1 9.5,9.5 h 3.5 a 13.000009,12.999999 0 0 0 -13,-13 z m 0,7 v 6 h 6 a 6.0000043,6 0 0 0 -6,-6 z"/></g></svg>