<svg xmlns="http://www.w3.org/2000/svg" xmlns:svg="http://www.w3.org/2000/svg" id="svg2" width="48" height="48" version="1.1" viewBox="0 0 48 48"><metadata id="metadata7"/><g id="layer1" transform="translate(-384,-1004.3622)" style="display:inline"><path style="display:inline;opacity:1;fill:#747474;fill-opacity:1;fill-rule:nonzero;stroke:none;stroke-width:35.43307114;stroke-miterlimit:4;stroke-dasharray:none;stroke-opacity:1" id="path2380" d="m 408,1012.3622 a 16,16 0 0 0 -16,16 v 4 h 6 v -4 a 10,9.9999962 0 0 1 10,-10 10,9.9999962 0 0 1 10,10 h -5 l 8,8 8,-8 h -5 a 16,16 0 0 0 -16,-16 z m -16,26 v 6 h 6 v -6 z m 8.66602,0 v 6 h 6 v -6 z m 8.66796,0 v 6 h 6 v -6 z m 8.66602,0 v 6 h 6 v -6 z"/></g></svg>