<svg xmlns="http://www.w3.org/2000/svg" xmlns:svg="http://www.w3.org/2000/svg" id="svg2" width="48" height="48" version="1.1" viewBox="0 0 48 48"><metadata id="metadata7"/><g id="layer1" transform="translate(-384,-1004.3622)" style="display:inline"><path style="color:#000;display:inline;overflow:visible;visibility:visible;opacity:1;fill:#ff950d;fill-opacity:1;fill-rule:nonzero;stroke:none;stroke-width:6;stroke-linecap:round;stroke-linejoin:round;stroke-miterlimit:4;stroke-dasharray:none;stroke-dashoffset:0;stroke-opacity:1;marker:none;enable-background:accumulate" id="path8581" d="m 419.9199,1010.4667 -2.8222,2.8222 a 20.000103,20 0 0 1 6.9023,15.0977 20.000103,20 0 0 1 -6.7695,14.9648 l 2.7519,2.9063 a 24.000124,24 0 0 0 8.0176,-17.8711 24.000124,24 0 0 0 -8.0801,-17.9199 z m -5.6621,5.6621 -2.8418,2.8418 a 11.99999,12 0 0 1 4.584,9.416 11.99999,12 0 0 1 -4.2695,9.1602 l 2.7578,2.9101 a 15.99999,16 0 0 0 5.5117,-12.0703 15.99999,16 0 0 0 -5.7422,-12.2578 z m -5.6972,5.6973 -2.918,2.9179 a 4,4.0000067 0 0 1 2.3574,3.6426 4,4.0000067 0 0 1 -1.791,3.332 l 2.7676,2.9219 a 7.9999976,8.0000105 0 0 0 3.0234,-6.2539 7.9999976,8.0000105 0 0 0 -3.4394,-6.5605 z"/><path style="display:inline;fill:#747474;fill-opacity:1;fill-rule:evenodd;stroke:none;stroke-width:1px;stroke-linecap:butt;stroke-linejoin:miter;stroke-opacity:1" id="path8579" d="m 388,1020.3622 h 4 l 8,-8 h 4 v 32 h -4 l -8,-8 h -4 z"/></g></svg>