<svg xmlns="http://www.w3.org/2000/svg" xmlns:svg="http://www.w3.org/2000/svg" id="svg2" width="48" height="48" version="1.1" viewBox="0 0 48 48"><metadata id="metadata7"/><g id="layer1" transform="translate(-384,-1004.3622)" style="display:inline"><path id="path8577" d="m 414.25779,1016.1288 -2.8418,2.8418 c 2.8892,2.2711 4.5785,5.741 4.584,9.416 0,3.533 -1.5673,6.8842 -4.2695,9.1602 l 2.7578,2.9101 c 3.4976,-3.036 5.5081,-7.4388 5.5117,-12.0703 -0.01,-4.7342 -2.1089,-9.2226 -5.7422,-12.2578 z m -5.6973,5.6973 -2.9179,2.9179 c 1.4333,0.6455 2.3556,2.0707 2.3574,3.6426 -9e-4,1.3406 -0.6734,2.5917 -1.791,3.332 l 2.7676,2.9219 c 1.9074,-1.5155 3.0204,-3.8176 3.0234,-6.2539 0,-2.6179 -1.2886,-5.0682 -3.4395,-6.5605 z" style="color:#000;display:inline;overflow:visible;visibility:visible;opacity:1;fill:#ff950d;fill-opacity:1;fill-rule:nonzero;stroke:none;stroke-width:6;stroke-linecap:round;stroke-linejoin:round;stroke-miterlimit:4;stroke-dasharray:none;stroke-dashoffset:0;stroke-opacity:1;marker:none;enable-background:accumulate"/><path id="path8575" d="m 387.99999,1020.3622 h 4 l 8,-8 h 4 v 32 h -4 l -8,-8 h -4 z" style="display:inline;fill:#747474;fill-opacity:1;fill-rule:evenodd;stroke:none;stroke-width:1px;stroke-linecap:butt;stroke-linejoin:miter;stroke-opacity:1"/></g></svg>