<svg xmlns="http://www.w3.org/2000/svg" xmlns:svg="http://www.w3.org/2000/svg" id="svg2" width="48" height="48" version="1.1" viewBox="0 0 48 48"><metadata id="metadata7"/><g id="layer1" transform="translate(-384,-1004.3622)" style="display:inline"><path style="color:#000;display:inline;overflow:visible;visibility:visible;opacity:1;fill:#ff950d;fill-opacity:1;fill-rule:evenodd;stroke:none;stroke-width:3.54299998;stroke-linecap:round;stroke-linejoin:round;stroke-miterlimit:4;stroke-dasharray:none;stroke-dashoffset:0;stroke-opacity:1;marker:none;enable-background:accumulate" id="circle6298" d="m 408.00001,1008.3621 a 20,20 0 0 0 -20,20 20,20 0 0 0 20,20 20,20 0 0 0 20,-20 20,20 0 0 0 -20,-20 z m -2.5,7.5 h 5 v 5 h -5 z m 0,7.5 h 5 l -0.0977,17.5 h -5 z"/><g id="g4776" transform="matrix(2.5,0,0,2.5,387.99998,1008.3621)" style="font-style:normal;font-variant:normal;font-weight:700;font-stretch:normal;font-size:11.44134045px;line-height:125%;font-family:'Bitstream Vera Sans';-inkscape-font-specification:'Bitstream Vera Sans Bold';text-align:start;letter-spacing:0;word-spacing:0;writing-mode:lr-tb;text-anchor:start;display:inline;fill:#fafafa;fill-opacity:1;fill-rule:evenodd;stroke:none"><path style="fill:#fafafa;fill-opacity:1" id="path4778" d="m 7,6 h 2 l -0.039106,7 h -2 L 7,6 M 7,3 H 9 V 5 H 7 V 3"/></g><g style="font-style:normal;font-variant:normal;font-weight:700;font-stretch:normal;font-size:11.44134045px;line-height:125%;font-family:'Bitstream Vera Sans';-inkscape-font-specification:'Bitstream Vera Sans Bold';text-align:start;letter-spacing:0;word-spacing:0;writing-mode:lr-tb;text-anchor:start;display:inline;fill:#fafafa;fill-opacity:1;fill-rule:evenodd;stroke:none" id="g6952" transform="matrix(2.5,0,0,2.5,387.99998,1008.3621)"><path id="path6950" d="m 7,6 h 2 l -0.039106,7 h -2 L 7,6 M 7,3 H 9 V 5 H 7 V 3" style="fill:#fafafa;fill-opacity:1"/></g></g></svg>