<svg xmlns="http://www.w3.org/2000/svg" xmlns:svg="http://www.w3.org/2000/svg" id="svg2" width="48" height="48" version="1.1" viewBox="0 0 48 48"><metadata id="metadata7"/><g id="layer1" transform="translate(-384,-1004.3622)" style="display:inline"><path style="color:#000;display:inline;overflow:visible;visibility:visible;opacity:1;fill:#747474;fill-opacity:1;fill-rule:evenodd;stroke:none;stroke-width:100;stroke-linecap:round;stroke-linejoin:round;stroke-miterlimit:4;stroke-dasharray:none;stroke-dashoffset:0;stroke-opacity:1;marker:none;enable-background:accumulate" id="path10617" d="m 393.8672,1014.2294 a 20,20 0 0 0 -5.86719,14.1328 20,20 0 0 0 5.86719,14.1328 l 2.82617,-2.8262 a 16,16 0 0 1 -4.69336,-11.3066 16,16 0 0 1 4.69336,-11.3066 z m 28.26562,0 -2.82617,2.8262 a 16,16 0 0 1 4.69336,11.3066 16,16 0 0 1 -4.69336,11.3066 l 2.82617,2.8262 a 20,20 0 0 0 5.86719,-14.1328 20,20 0 0 0 -5.86719,-14.1328 z m -22.61328,5.6523 a 12,12 0 0 0 -3.51953,8.4805 12,12 0 0 0 3.51953,8.4805 l 2.82617,-2.8262 a 8,8 0 0 1 -2.3457,-5.6543 8,8 0 0 1 2.3457,-5.6543 z m 16.96094,0 -2.82617,2.8262 a 8,8 0 0 1 2.3457,5.6543 8,8 0 0 1 -2.3457,5.6543 l 2.82617,2.8262 a 12,12 0 0 0 3.51953,-8.4805 12,12 0 0 0 -3.51953,-8.4805 z m -8.48047,4.4805 a 4,4 0 0 0 -4,4 4,4 0 0 0 4,4 4,4 0 0 0 4,-4 4,4 0 0 0 -4,-4 z"/></g></svg>