<svg xmlns="http://www.w3.org/2000/svg" xmlns:svg="http://www.w3.org/2000/svg" id="svg5502" width="48" height="48" version="1.1" viewBox="0 0 12.7 12.7"><metadata id="metadata5499"/><g id="layer1" transform="translate(-96.459526,-120.56071)"><path id="path11123" d="m 101.51348,123.02309 a 4.1010417,4.1010417 0 0 0 -2.805003,3.88762 h 2.513553 a 1.5875,1.5875003 0 0 1 1.08623,-1.5043 z m 2.88355,3.88762 a 1.5875,1.5875003 0 0 1 -1.08624,1.5043 l 0.79478,2.38332 a 4.1010417,4.1010417 0 0 0 2.805,-3.88762 z" style="color:#000;display:inline;overflow:visible;visibility:visible;opacity:1;fill:#ff950d;fill-opacity:1;fill-rule:evenodd;stroke:none;stroke-width:1.58749998;stroke-linecap:butt;stroke-linejoin:round;stroke-miterlimit:4;stroke-dasharray:none;stroke-dashoffset:4.19999981;stroke-opacity:1;marker:none;enable-background:accumulate"/><path id="path11125" d="m 102.80953,121.61904 a 5.2916667,5.2916667 0 0 0 -5.291678,5.29167 5.2916667,5.2916667 0 0 0 5.291678,5.29167 5.2916667,5.2916667 0 0 0 5.29166,-5.29167 5.2916667,5.2916667 0 0 0 -5.29166,-5.29167 z m 0,0.79375 a 4.4979167,4.4979167 0 0 1 4.49791,4.49792 4.4979167,4.4979167 0 0 1 -4.49791,4.49792 4.4979167,4.4979167 0 0 1 -4.497928,-4.49792 4.4979167,4.4979167 0 0 1 4.497928,-4.49792 z" style="color:#000;display:inline;overflow:visible;visibility:visible;opacity:1;fill:#747474;fill-opacity:1;fill-rule:evenodd;stroke:none;stroke-width:1.58749998;stroke-linecap:butt;stroke-linejoin:round;stroke-miterlimit:4;stroke-dasharray:none;stroke-dashoffset:4.19999981;stroke-opacity:1;marker:none;enable-background:accumulate"/><ellipse id="ellipse11127" cx="102.81" cy="126.911" rx="1.191" ry="1.191" style="color:#000;display:inline;overflow:visible;visibility:visible;opacity:1;fill:#747474;fill-opacity:1;fill-rule:evenodd;stroke:none;stroke-width:1.58749998;stroke-linecap:butt;stroke-linejoin:round;stroke-miterlimit:4;stroke-dasharray:none;stroke-dashoffset:4.19999981;stroke-opacity:1;marker:none;enable-background:accumulate"/></g></svg>