<svg xmlns="http://www.w3.org/2000/svg" xmlns:svg="http://www.w3.org/2000/svg" id="svg5502" width="48" height="48" version="1.1" viewBox="0 0 12.7 12.7"><metadata id="metadata5499"/><g id="layer1" transform="translate(-96.459526,-120.56071)"><rect id="rect10848" width="2.646" height="2.646" x="104.926" y="122.148" style="color:#000;display:inline;overflow:visible;visibility:visible;opacity:1;fill:#ff950d;fill-opacity:1;fill-rule:evenodd;stroke:none;stroke-width:1.58749998;stroke-linecap:butt;stroke-linejoin:round;stroke-miterlimit:4;stroke-dasharray:none;stroke-dashoffset:4.19999981;stroke-opacity:1;marker:none;enable-background:accumulate"/><rect style="color:#000;display:inline;overflow:visible;visibility:visible;opacity:1;fill:#ff950d;fill-opacity:1;fill-rule:evenodd;stroke:none;stroke-width:1.58749998;stroke-linecap:butt;stroke-linejoin:round;stroke-miterlimit:4;stroke-dasharray:none;stroke-dashoffset:4.19999981;stroke-opacity:1;marker:none;enable-background:accumulate" id="rect10854" width="2.646" height="2.646" x="101.487" y="-131.673" transform="scale(1,-1)"/><rect style="color:#000;display:inline;overflow:visible;visibility:visible;opacity:1;fill:#ff950d;fill-opacity:1;fill-rule:evenodd;stroke:none;stroke-width:1.58749998;stroke-linecap:butt;stroke-linejoin:round;stroke-miterlimit:4;stroke-dasharray:none;stroke-dashoffset:4.19999981;stroke-opacity:1;marker:none;enable-background:accumulate" id="rect6598" width="2.646" height="2.646" x="98.047" y="122.148"/><path style="color:#000;display:inline;overflow:visible;visibility:visible;opacity:1;fill:#747474;fill-opacity:1;fill-rule:evenodd;stroke:none;stroke-width:1.58749998;stroke-linecap:butt;stroke-linejoin:round;stroke-miterlimit:4;stroke-dasharray:none;stroke-dashoffset:4.19999981;stroke-opacity:1;marker:none;enable-background:accumulate" id="rect10832" d="m 97.517855,121.61904 v 3.70417 h 1.455209 v 0.79375 h -1.455209 v 1.5875 h 4.894795 v 0.79375 h -1.45521 v 3.70417 h 3.70416 v -3.70417 h -1.4552 v -0.79375 h 4.89478 v -1.5875 h -1.45521 v -0.79375 h 1.45521 v -3.70417 h -3.70416 v 3.70417 h 1.4552 v 0.79375 h -6.085406 v -0.79375 h 1.455216 v -3.70417 z m 0.529167,0.52917 h 2.645838 v 2.64583 h -2.645838 z m 6.879158,0 h 2.64584 v 2.64583 h -2.64584 z m -3.43957,6.87917 h 2.64582 v 2.64583 h -2.64582 z"/></g></svg>