<svg xmlns="http://www.w3.org/2000/svg" xmlns:svg="http://www.w3.org/2000/svg" id="svg5502" width="48" height="48" version="1.1" viewBox="0 0 12.7 12.7"><metadata id="metadata5499"/><g id="layer1" transform="translate(-96.459526,-120.56071)"><path style="color:#000;display:inline;overflow:visible;visibility:visible;opacity:1;fill:#ff950d;fill-opacity:1;fill-rule:evenodd;stroke:none;stroke-width:1.05833328;stroke-linecap:butt;stroke-linejoin:round;stroke-miterlimit:4;stroke-dasharray:none;stroke-dashoffset:4.19999981;stroke-opacity:1;marker:none;enable-background:accumulate" id="path11233" d="m 102.54494,121.61905 a 3.96875,1.0583333 0 0 0 -3.968747,1.05834 v 1.5875 a 3.96875,1.0583333 0 0 0 3.968747,1.05833 3.96875,1.0583333 0 0 0 3.96875,-1.05833 v -1.5875 a 3.96875,1.0583333 0 0 0 -3.96875,-1.05834 z m -3.968747,3.70417 v 1.5875 a 3.96875,1.0583333 0 0 0 2.116667,0.93534 v -1.5875 a 3.96875,1.0583333 0 0 1 -2.116667,-0.93534 z m 0,2.64583 v 1.5875 a 3.96875,1.0583333 0 0 0 2.116667,0.93535 v -1.5875 a 3.96875,1.0583333 0 0 1 -2.116667,-0.93535 z"/><path style="color:#000;display:inline;overflow:visible;visibility:visible;opacity:1;fill:#747474;fill-opacity:1;fill-rule:evenodd;stroke:none;stroke-width:1.05833328;stroke-linecap:butt;stroke-linejoin:round;stroke-miterlimit:4;stroke-dasharray:none;stroke-dashoffset:4.19999981;stroke-opacity:1;marker:none;enable-background:accumulate" id="rect11214" d="m 101.48661,125.85239 v 6.35 h 0.79375 v -0.92605 h 1.05833 v 0.92605 h 3.70417 v -6.35 h -3.70417 v 0.92604 h -1.05833 v -0.92604 z m 3.43958,0.52916 h 1.5875 v 0.79375 h -0.79375 v 3.57188 a 0.92604167,0.92604167 0 0 1 -0.92604,0.92604 0.92604167,0.92604167 0 0 1 -0.92604,-0.92604 0.92604167,0.92604167 0 0 1 0.92604,-0.92604 0.92604167,0.92604167 0 0 1 0.13229,0.0108 v -2.65668 z m -2.64583,1.19063 h 1.05833 v 1.05833 h -1.05833 z m 0,1.85208 h 1.05833 v 1.05833 h -1.05833 z"/></g></svg>