<svg xmlns="http://www.w3.org/2000/svg" xmlns:svg="http://www.w3.org/2000/svg" id="svg5502" width="48" height="48" version="1.1" viewBox="0 0 12.7 12.7"><metadata id="metadata5499"/><g id="layer1" transform="translate(-96.459526,-120.56071)"><path style="display:inline;fill:#ff950d;fill-opacity:1;fill-rule:evenodd;stroke:none;stroke-width:.99999994px;stroke-linecap:butt;stroke-linejoin:miter;stroke-opacity:1" id="path9950" d="M 33 16 A 3 3 0 0 0 30 19 A 3 3 0 0 0 33 22 A 3 3 0 0 0 36 19 A 3 3 0 0 0 33 16 z M 18 18 L 10 34 L 22 34 L 26 34 L 38 34 L 30 24 L 24.460938 30.923828 L 18 18 z" transform="matrix(0.26458333,0,0,0.26458333,96.459526,120.56071)"/><path style="color:#000;display:inline;overflow:visible;visibility:visible;opacity:1;fill:#757575;fill-opacity:1;fill-rule:evenodd;stroke:none;stroke-width:.79374999;stroke-linecap:butt;stroke-linejoin:round;stroke-miterlimit:4;stroke-dasharray:none;stroke-dashoffset:4.19999981;stroke-opacity:1;marker:none;enable-background:accumulate" id="rect9943" d="m 97.517862,122.67738 v 8.46666 H 108.1012 v -8.46666 z m 1.058334,1.05833 h 8.466674 v 6.35 h -8.466674 z"/></g></svg>