<svg xmlns="http://www.w3.org/2000/svg" xmlns:svg="http://www.w3.org/2000/svg" id="svg5502" width="48" height="48" version="1.1" viewBox="0 0 12.7 12.7"><metadata id="metadata5499"/><g id="layer1" transform="translate(-96.459526,-120.56071)"><path style="color:#000;display:inline;overflow:visible;visibility:visible;opacity:1;fill:#ff950d;fill-opacity:1;fill-rule:evenodd;stroke:none;stroke-width:.79374999;stroke-linecap:butt;stroke-linejoin:round;stroke-miterlimit:4;stroke-dasharray:none;stroke-dashoffset:4.19999981;stroke-opacity:1;marker:none;enable-background:accumulate" id="ellipse9978" d="m 103.28226,121.61904 -0.26466,0.7564 a 4.8108904,4.8108904 0 0 1 3.22344,4.53527 4.8108904,4.8108904 0 0 1 -3.22344,4.53579 l 0.26466,0.75588 a 5.6127055,5.6127055 0 0 0 3.7606,-5.29167 5.6127055,5.6127055 0 0 0 -3.7606,-5.29167 z m -0.52932,1.51176 -0.26467,0.75588 a 3.2072609,3.2072601 0 0 1 2.14914,3.02403 3.2072609,3.2072601 0 0 1 -2.14914,3.02351 l 0.26467,0.7564 a 4.0090754,4.0090741 0 0 0 2.68629,-3.77991 4.0090754,4.0090741 0 0 0 -2.68629,-3.77991 z m -0.5288,1.51175 -0.26466,0.7564 a 1.6036292,1.6036301 0 0 1 1.0743,1.51176 1.6036292,1.6036301 0 0 1 -1.0743,1.51175 l 0.26413,0.75588 a 2.4054459,2.4054452 0 0 0 1.61199,-2.26763 2.4054459,2.4054452 0 0 0 -1.61146,-2.26816 z"/><path style="color:#000;display:inline;overflow:visible;visibility:visible;opacity:1;fill:#757575;fill-opacity:1;fill-rule:evenodd;stroke:none;stroke-width:.79374999;stroke-linecap:butt;stroke-linejoin:round;stroke-miterlimit:4;stroke-dasharray:none;stroke-dashoffset:4.19999981;stroke-opacity:1;marker:none;enable-background:accumulate" id="path9967" d="m 100.16369,125.32321 a 1.5875009,1.5875 0 0 0 -1.587499,1.5875 1.5875009,1.5875 0 0 0 0.83199,1.39578 c -0.259599,0.8268 -0.535781,2.09164 -0.83199,3.89589 h 3.174999 c -0.26048,-1.57913 -0.52941,-2.9671 -0.81597,-3.90623 a 1.5875009,1.5875 0 0 0 0.81597,-1.38544 1.5875009,1.5875 0 0 0 -1.5875,-1.5875 z"/></g></svg>