<svg xmlns="http://www.w3.org/2000/svg" xmlns:svg="http://www.w3.org/2000/svg" id="svg5502" width="48" height="48" version="1.1" viewBox="0 0 12.7 12.7"><metadata id="metadata5499"/><g id="layer1" transform="translate(-96.459526,-120.56071)"><path style="color:#000;display:inline;overflow:visible;visibility:visible;opacity:1;fill:#ff950d;fill-opacity:1;fill-rule:evenodd;stroke:none;stroke-width:3.89331436;stroke-linecap:butt;stroke-linejoin:round;stroke-miterlimit:4;stroke-dasharray:none;stroke-dashoffset:4.19999981;stroke-opacity:1;marker:none;enable-background:accumulate" id="rect11084" d="M 15 17 C 13.892 17 13 17.892 13 19 L 13 29 C 13 30.108 13.892 31 15 31 L 27 31 C 28.108 31 29 30.108 29 29 L 29 26 L 35 31 L 35 17 L 29 22 L 29 19 C 29 17.892 28.108 17 27 17 L 15 17 z" transform="matrix(0.26458333,0,0,0.26458333,96.459526,120.56071)"/><path style="color:#000;display:inline;overflow:visible;visibility:visible;opacity:1;fill:#747474;fill-opacity:1;fill-rule:evenodd;stroke:none;stroke-width:15;stroke-linecap:butt;stroke-linejoin:round;stroke-miterlimit:4;stroke-dasharray:none;stroke-dashoffset:4.19999981;stroke-opacity:1;marker:none;enable-background:accumulate" id="rect10711-8" d="M 8 8 C 5.7840252 8 4 9.7839874 4 12 L 4 36 C 4 38.216013 5.7840252 40 8 40 L 16 40 L 16 42 L 32 42 L 32 40 L 40 40 C 42.216013 40 44 38.216013 44 36 L 44 12 C 44 9.7839874 42.216013 8 40 8 L 8 8 z M 8 12 L 40 12 L 40 36 L 8 36 L 8 12 z" transform="matrix(0.26458333,0,0,0.26458333,96.459526,120.56071)"/></g></svg>