<svg xmlns="http://www.w3.org/2000/svg" xmlns:svg="http://www.w3.org/2000/svg" id="svg2" width="48" height="48" version="1.1" viewBox="0 0 48 48"><metadata id="metadata7"/><g id="layer1" transform="translate(-384,-1004.3622)" style="display:inline"><path style="color:#000;display:inline;overflow:visible;visibility:visible;opacity:1;fill:#757575;fill-opacity:1;fill-rule:evenodd;stroke:none;stroke-width:2.04939032;stroke-linecap:butt;stroke-linejoin:round;stroke-miterlimit:4;stroke-dasharray:none;stroke-dashoffset:4.19999981;stroke-opacity:1;marker:none;enable-background:accumulate" id="rect11693" d="m 400,1012.3622 v 4 a 3.9999981,4 0 0 1 4,4 v 4 a 4,3.9999981 0 0 1 -4,4 v 16 h 12 9 v -4 h 4 v 4 h 3 v -32 h -3 v 4 h -4 v -4 h -9 z m -5,4 v 3 h -7 v 6 h 7 v 3 l 6,-6 z m 15,0 h 8 v 4 h -4 v 15 a 5,4.9999986 0 0 1 -5,5 5,4.9999986 0 0 1 -5,-5 5,4.9999986 0 0 1 5,-5 5,4.9999986 0 0 1 1,0.1016 v -10.1016 z m 11,3 h 4 v 4 h -4 z m 0,7 h 4 v 4 h -4 z m 0,7 h 4 v 4 h -4 z"/></g></svg>