<svg xmlns="http://www.w3.org/2000/svg" xmlns:svg="http://www.w3.org/2000/svg" id="svg2" width="48" height="48" version="1.1" viewBox="0 0 48 48"><metadata id="metadata7"/><g id="layer1" transform="translate(-384,-1004.3622)" style="display:inline"><path style="color:#000;display:inline;overflow:visible;visibility:visible;opacity:1;fill:#757575;fill-opacity:1;fill-rule:evenodd;stroke:none;stroke-width:22.5;stroke-linecap:butt;stroke-linejoin:round;stroke-miterlimit:4;stroke-dasharray:none;stroke-dashoffset:4.19999981;stroke-opacity:1;marker:none;enable-background:accumulate" id="rect11141" d="M 15 8 L 15 12 L 12 12 L 12 15 L 8 15 L 8 19 L 12 19 L 12 22 L 8 22 L 8 26 L 12 26 L 12 29 L 8 29 L 8 33 L 12 33 L 12 36 L 15 36 L 15 40 L 19 40 L 19 36 L 22 36 L 22 40 L 26 40 L 26 36 L 29 36 L 29 40 L 33 40 L 33 36 L 36 36 L 36 33 L 40 33 L 40 29 L 36 29 L 36 26 L 40 26 L 40 22 L 36 22 L 36 19 L 40 19 L 40 15 L 36 15 L 36 12 L 33 12 L 33 8 L 29 8 L 29 12 L 26 12 L 26 8 L 22 8 L 22 12 L 19 12 L 19 8 L 15 8 z M 20 20 L 28 20 L 28 28 L 20 28 L 20 20 z" transform="translate(384,1004.3622)"/></g></svg>