<svg xmlns="http://www.w3.org/2000/svg" xmlns:svg="http://www.w3.org/2000/svg" id="svg5502" width="48" height="48" version="1.1" viewBox="0 0 12.7 12.7"><metadata id="metadata5499"/><g id="layer1" transform="translate(-96.459526,-120.56071)"><path style="display:inline;fill:#ff950d;fill-opacity:1;fill-rule:evenodd;stroke:none;stroke-width:.26458332px;stroke-linecap:butt;stroke-linejoin:miter;stroke-opacity:1" id="path10075" d="m 102.80953,123.20654 -4.762507,1.05834 v 0.26458 h 0.529167 v 0.79375 h 8.46667 v -0.79375 h 0.52917 v -0.26458 z"/><path style="display:inline;fill:#ff950d;fill-opacity:1;fill-rule:evenodd;stroke:none;stroke-width:.26458332px;stroke-linecap:butt;stroke-linejoin:miter;stroke-opacity:1" id="path10097" d="m 108.10119,130.61488 -1.05833,-1.05834 h -8.46667 l -1.058334,1.05834 z"/><rect id="rect7000" width=".498" height="4.233" x="100.568" y="125.306" rx="1.209" ry="1.54" style="display:inline;fill:#00f;fill-opacity:1;fill-rule:nonzero;stroke:none;stroke-width:.26458332"/><rect id="rect7002" width=".498" height="4.233" x="101.564" y="125.306" rx="1.209" ry="1.54" style="display:inline;fill:#e6e6e6;fill-opacity:1;fill-rule:nonzero;stroke:none;stroke-width:.26458332"/><rect id="rect7004" width=".498" height="4.233" x="102.561" y="125.306" rx="1.209" ry="1.54" style="display:inline;fill:#e6e6e6;fill-opacity:1;fill-rule:nonzero;stroke:none;stroke-width:.26458332"/><rect id="rect7006" width=".498" height="4.233" x="103.557" y="125.306" rx="1.209" ry="1.54" style="display:inline;fill:#e6e6e6;fill-opacity:1;fill-rule:nonzero;stroke:none;stroke-width:.26458332"/><rect id="rect7008" width=".498" height="4.233" x="104.553" y="125.306" rx="1.209" ry="1.54" style="display:inline;fill:red;fill-opacity:1;fill-rule:nonzero;stroke:none;stroke-width:.26458332"/><rect id="rect7010" width=".498" height="4.233" x="105.549" y="125.306" rx="1.209" ry="1.54" style="display:inline;fill:red;fill-opacity:1;fill-rule:nonzero;stroke:none;stroke-width:.26458332"/><rect id="rect7012" width=".498" height="4.233" x="106.545" y="125.306" rx="1.209" ry="1.54" style="display:inline;fill:red;fill-opacity:1;fill-rule:nonzero;stroke:none;stroke-width:.26458332"/><rect id="rect7014" width=".498" height="4.233" x="99.572" y="125.306" rx="1.209" ry="1.54" style="display:inline;fill:#00f;fill-opacity:1;fill-rule:nonzero;stroke:none;stroke-width:.26458332"/><rect id="rect7016" width=".498" height="4.233" x="98.576" y="125.306" rx="1.209" ry="1.54" style="display:inline;fill:#00f;fill-opacity:1;fill-rule:nonzero;stroke:none;stroke-width:.26458332"/></g></svg>