<svg xmlns="http://www.w3.org/2000/svg" xmlns:svg="http://www.w3.org/2000/svg" id="svg5502" width="48" height="48" version="1.1" viewBox="0 0 12.7 12.7"><metadata id="metadata5499"/><g id="layer1" transform="translate(-96.459526,-120.56071)"><rect style="color:#000;display:inline;overflow:visible;visibility:visible;opacity:1;fill:#ff950d;fill-opacity:1;fill-rule:evenodd;stroke:none;stroke-width:.79374999;stroke-linecap:butt;stroke-linejoin:round;stroke-miterlimit:4;stroke-dasharray:none;stroke-dashoffset:4.19999981;stroke-opacity:1;marker:none;enable-background:accumulate" id="rect10119" width="6.35" height="4.762" x="99.105" y="125.852" rx="1.058" ry="1.058"/><circle style="color:#000;display:inline;overflow:visible;visibility:visible;opacity:1;fill:#ff950d;fill-opacity:1;fill-rule:evenodd;stroke:none;stroke-width:.79374999;stroke-linecap:butt;stroke-linejoin:round;stroke-miterlimit:4;stroke-dasharray:none;stroke-dashoffset:4.19999981;stroke-opacity:1;marker:none;enable-background:accumulate" id="path10121" cx="106.514" cy="127.175" r=".529"/><circle style="color:#000;display:inline;overflow:visible;visibility:visible;opacity:1;fill:#ff950d;fill-opacity:1;fill-rule:evenodd;stroke:none;stroke-width:.79374999;stroke-linecap:butt;stroke-linejoin:round;stroke-miterlimit:4;stroke-dasharray:none;stroke-dashoffset:4.19999981;stroke-opacity:1;marker:none;enable-background:accumulate" id="path10123" cx="106.514" cy="129.292" r=".529"/><path style="color:#000;display:inline;overflow:visible;visibility:visible;opacity:1;fill:#747474;fill-opacity:1;fill-rule:evenodd;stroke:none;stroke-width:.79374999;stroke-linecap:butt;stroke-linejoin:round;stroke-miterlimit:4;stroke-dasharray:none;stroke-dashoffset:4.19999981;stroke-opacity:1;marker:none;enable-background:accumulate" id="rect10117" d="m 99.105369,124.79404 c -0.58632,0 -1.05833,0.47202 -1.05833,1.05834 v 4.7625 c 0,0.58631 0.47201,1.05833 1.05833,1.05833 h 1.058331 c 0,0.29225 0.23692,0.52917 0.52917,0.52917 0.29225,0 0.52917,-0.23692 0.52917,-0.52917 h 3.175 c 0,0.29225 0.23691,0.52917 0.52916,0.52917 0.29225,0 0.52917,-0.23692 0.52917,-0.52917 h 1.05833 c 0.58632,0 1.05834,-0.47202 1.05834,-1.05833 v -4.7625 c 0,-0.58632 -0.47202,-1.05834 -1.05834,-1.05834 z m 1.058331,1.05834 h 4.23334 c 0.58631,0 1.05833,0.47201 1.05833,1.05833 v 2.64583 c 0,0.58632 -0.47202,1.05834 -1.05833,1.05834 h -4.23334 c -0.586311,0 -1.058331,-0.47202 -1.058331,-1.05834 v -2.64583 c 0,-0.58632 0.47202,-1.05833 1.058331,-1.05833 z m 6.35,0.79375 a 0.52916667,0.52916667 0 0 1 0.52917,0.52916 0.52916667,0.52916667 0 0 1 -0.52917,0.52917 0.52916667,0.52916667 0 0 1 -0.52916,-0.52917 0.52916667,0.52916667 0 0 1 0.52916,-0.52916 z m 0,2.11666 a 0.52916667,0.52916667 0 0 1 0.52917,0.52917 0.52916667,0.52916667 0 0 1 -0.52917,0.52917 0.52916667,0.52916667 0 0 1 -0.52916,-0.52917 0.52916667,0.52916667 0 0 1 0.52916,-0.52917 z"/><path style="display:inline;fill:#747474;fill-opacity:1;fill-rule:evenodd;stroke:none;stroke-width:.26458332px;stroke-linecap:butt;stroke-linejoin:miter;stroke-opacity:1" id="path10130" d="m 101.7512,124.79404 -2.116661,-2.11666 2.645831,2.11666 z"/><path id="path10132" d="m 102.80954,124.79404 1.05833,-3.175 -1.5875,3.175 z" style="display:inline;fill:#747474;fill-opacity:1;fill-rule:evenodd;stroke:none;stroke-width:.26458332px;stroke-linecap:butt;stroke-linejoin:miter;stroke-opacity:1"/><rect style="color:#000;display:inline;overflow:visible;visibility:visible;opacity:1;fill:red;fill-opacity:1;fill-rule:evenodd;stroke:none;stroke-width:.79374999;stroke-linecap:butt;stroke-linejoin:round;stroke-miterlimit:4;stroke-dasharray:none;stroke-dashoffset:4.19999981;stroke-opacity:1;marker:none;enable-background:accumulate" id="rect10134" width="1.058" height="2.117" x="107.043" y="121.619" rx="0" ry="0"/><rect id="rect10138" width="1.058" height="2.117" x="105.985" y="121.619" rx="0" ry="0" style="color:#000;display:inline;overflow:visible;visibility:visible;opacity:1;fill:#fff;fill-opacity:1;fill-rule:evenodd;stroke:none;stroke-width:.79374999;stroke-linecap:butt;stroke-linejoin:round;stroke-miterlimit:4;stroke-dasharray:none;stroke-dashoffset:4.19999981;stroke-opacity:1;marker:none;enable-background:accumulate"/><rect style="color:#000;display:inline;overflow:visible;visibility:visible;opacity:1;fill:#00f;fill-opacity:1;fill-rule:evenodd;stroke:none;stroke-width:.79374999;stroke-linecap:butt;stroke-linejoin:round;stroke-miterlimit:4;stroke-dasharray:none;stroke-dashoffset:4.19999981;stroke-opacity:1;marker:none;enable-background:accumulate" id="rect10140" width="1.058" height="2.117" x="104.926" y="121.619" rx="0" ry="0"/></g></svg>