<svg xmlns="http://www.w3.org/2000/svg" xmlns:svg="http://www.w3.org/2000/svg" id="svg5502" width="48" height="48" version="1.1" viewBox="0 0 12.7 12.7"><metadata id="metadata5499"/><g id="layer1" transform="translate(-96.459526,-120.56071)"><path id="path10142" d="m 97.51786,125.37964 0.756402,0.26466 a 4.8108904,4.8108904 0 0 1 4.535268,-3.22344 4.8108904,4.8108904 0 0 1 4.53578,3.22344 l 0.75588,-0.26466 a 5.6127055,5.6127055 0 0 0 -5.29166,-3.7606 5.6127055,5.6127055 0 0 0 -5.29167,3.7606 z m 1.511755,0.52932 0.755881,0.26467 a 3.2072601,3.2072609 0 0 1 3.024034,-2.14914 3.2072601,3.2072609 0 0 1 3.02351,2.14914 l 0.7564,-0.26467 a 4.0090741,4.0090754 0 0 0 -3.77991,-2.68629 4.0090741,4.0090754 0 0 0 -3.779915,2.68629 z m 1.511755,0.5288 0.7564,0.26466 a 1.6036301,1.6036292 0 0 1 1.51176,-1.0743 1.6036301,1.6036292 0 0 1 1.51175,1.0743 l 0.75588,-0.26413 a 2.4054452,2.4054459 0 0 0 -2.26763,-1.61199 2.4054452,2.4054459 0 0 0 -2.26816,1.61146 z" style="color:#000;display:inline;overflow:visible;visibility:visible;opacity:1;fill:#ff950d;fill-opacity:1;fill-rule:evenodd;stroke:none;stroke-width:.79374999;stroke-linecap:butt;stroke-linejoin:round;stroke-miterlimit:4;stroke-dasharray:none;stroke-dashoffset:4.19999981;stroke-opacity:1;marker:none;enable-background:accumulate"/><path style="display:inline;fill:#747474;fill-opacity:1;fill-rule:evenodd;stroke:none;stroke-width:.20509106;stroke-linecap:butt;stroke-linejoin:round;stroke-miterlimit:4;stroke-dasharray:none;stroke-opacity:1" id="path7098" d="m 102.83224,126.91071 -2.12719,0.58735 2.19646,0.90263 2.02801,-0.98685 z m 2.3106,0.64387 -2.12775,1.03561 v 3.58393 l 2.12775,-2.04131 z m -4.66663,0.087 v 2.69681 l 2.31946,1.864 v -3.60776 z"/></g></svg>