<svg xmlns="http://www.w3.org/2000/svg" xmlns:svg="http://www.w3.org/2000/svg" id="svg2" width="48" height="48" version="1.1" viewBox="0 0 48 48"><metadata id="metadata7"/><g id="layer1" transform="translate(-384,-1004.3622)" style="display:inline"><path id="path7201" d="m 415.20117,1011.58 a 6,2 73.213859 0 0 -0.13867,0.027 6,2 73.213859 0 0 -0.37695,5.6132 6,2 40.402232 0 0 -5.29688,-1.9043 6,2 40.402232 0 0 3.27344,5.4122 6,2 40.402232 0 0 2.44531,1.7304 4,3.9999917 0 0 0 -0.10742,0.9024 4,3.9999917 0 0 0 0.61133,2.1191 11.000002,3.9999928 0 0 0 -7.61133,-1.1191 11.000002,3.9999928 0 0 0 -4.06836,0.2871 3.9999983,3.9999917 0 0 0 -2.93164,-1.2871 3.9999983,3.9999917 0 0 0 -2.08789,0.5938 1.0000017,1 0 0 0 -0.91211,-0.5938 1.0000017,1 0 0 0 -1,1 1.0000017,1 0 0 0 0.59375,0.9141 3.9999983,3.9999917 0 0 0 -0.59375,2.0859 3.9999983,3.9999917 0 0 0 0.0508,0.625 11.000002,3.9999928 0 0 0 -0.0273,0.2031 2.0000019,4 80 0 0 -1.41602,0.1153 2.0000019,4 80 0 0 -3.5918,2.664 2.0000019,4 80 0 0 4.28711,1.2754 2.0000019,4 80 0 0 2.94922,-1.289 3.9999983,3.9999917 0 0 0 1.43946,0.3906 11.000002,3.9999928 0 0 0 7.30859,1.0156 11.000002,3.9999928 0 0 0 8.62695,-1.5234 4,2.0000019 10 0 0 3.07032,1.4062 4,2.0000019 10 0 0 4.28711,-1.2754 4,2.0000019 10 0 0 -3.5918,-2.664 4,2.0000019 10 0 0 -1.41016,-0.1192 11.000002,3.9999928 0 0 0 -0.35156,-0.8418 4,3.9999917 0 0 0 0.36914,0.018 4,3.9999917 0 0 0 4,-4 4,3.9999917 0 0 0 -3.72266,-3.9844 6,2 73.213859 0 0 -0.56836,-2.6035 6,2 73.213859 0 0 -3.50781,-5.1933 z" style="color:#000;display:inline;overflow:visible;visibility:visible;opacity:1;fill:#747474;fill-opacity:1;fill-rule:nonzero;stroke:none;stroke-width:3.54330707;stroke-linecap:round;stroke-linejoin:round;stroke-miterlimit:4;stroke-dasharray:14.17322835,14.17322835;stroke-dashoffset:0;stroke-opacity:1;marker:none;enable-background:accumulate"/></g></svg>