<svg xmlns="http://www.w3.org/2000/svg" xmlns:svg="http://www.w3.org/2000/svg" id="svg2" width="48" height="48" version="1.1" viewBox="0 0 48 48"><metadata id="metadata7"/><g id="layer1" transform="translate(-384,-1004.3622)" style="display:inline"><path style="display:inline;opacity:1;fill:#ff950d;fill-opacity:1;stroke:none;stroke-width:16;stroke-miterlimit:4;stroke-dasharray:none;stroke-opacity:1" id="path5908" d="m 408,1008.3621 a 10,10 0 0 0 -10,10 v 2 8 c -2.216,0 -4,1.784 -4,4 v 12 c 0,2.216 1.784,4 4,4 h 20 c 2.216,0 4,-1.784 4,-4 v -12 c 0,-2.216 -1.784,-4 -4,-4 v -8 -1.9844 a 10,10 0 0 0 0,-0.016 10,10 0 0 0 -10,-10 z m 0,4 a 6,6 0 0 1 6,6 v 7.9844 2.0156 h -12 v -2.0117 -5.9883 -2 a 6,6 0 0 1 6,-6 z"/></g></svg>