<svg xmlns="http://www.w3.org/2000/svg" xmlns:svg="http://www.w3.org/2000/svg" id="svg2" width="48" height="48" version="1.1" viewBox="0 0 48 48"><metadata id="metadata7"/><g id="layer1" transform="translate(-384,-1004.3622)" style="display:inline"><path style="color:#000;display:inline;overflow:visible;visibility:visible;opacity:1;fill:#747474;fill-opacity:1;fill-rule:nonzero;stroke:none;stroke-width:3.54330707;stroke-linecap:round;stroke-linejoin:round;stroke-miterlimit:4;stroke-dasharray:14.17322835,14.17322835;stroke-dashoffset:0;stroke-opacity:1;marker:none;enable-background:accumulate" id="path6877" d="m 408.00001,1020.3622 a 11.999819,12 0 0 0 -12,12 h 2 a 3.9999983,4.0000081 0 0 0 4,4 3.9999983,4.0000081 0 0 0 4,-4 h 4 a 3.9999983,4.0000081 0 0 0 4,4 3.9999983,4.0000081 0 0 0 4,-4 3.9999983,4.0000081 0 0 0 -0.01,-0.2598 8.0000019,8 0 0 0 6.01,-7.7402 h 4 a 3.9999983,4.0000081 0 0 0 -4,-4 3.9999983,4.0000081 0 0 0 -4,4 4.000001,4 0 0 1 -1.18945,2.8457 11.999819,12 0 0 0 -10.81055,-6.8457 z"/></g></svg>