<svg xmlns="http://www.w3.org/2000/svg" xmlns:svg="http://www.w3.org/2000/svg" id="svg2" width="48" height="48" version="1.1" viewBox="0 0 48 48"><metadata id="metadata7"/><g id="layer1" transform="translate(-384,-1004.3622)" style="display:inline"><path id="path6886" d="m 408.00001,1008.3623 c -11.0457,0 -20,8.9543 -20,20 0,11.0457 8.9543,20 20,20 11.0457,0 20,-8.9543 20,-20 h -5 c 0,8.2843 -6.7157,15 -15,15 -8.2843,0 -15,-6.7157 -15,-15 0,-8.2843 6.7157,-15 15,-15 4.1421,0 7.9105,1.6605 10.625,4.375 l -5.625,5.625 h 15 v -15 l -5.8594,5.8593 c -3.6193,-3.6192 -8.6178,-5.8593 -14.1406,-5.8593 z" style="color:#000;display:inline;overflow:visible;visibility:visible;fill:#747474;fill-opacity:1;fill-rule:nonzero;stroke:none;stroke-width:.5;marker:none;enable-background:accumulate"/></g></svg>