<svg xmlns="http://www.w3.org/2000/svg" xmlns:svg="http://www.w3.org/2000/svg" id="svg2" width="48" height="48" version="1.1" viewBox="0 0 48 48"><metadata id="metadata7"/><g id="layer1" transform="translate(-384,-1004.3622)" style="display:inline"><path style="color:#000;display:inline;overflow:visible;visibility:visible;opacity:1;fill:#ff950d;fill-opacity:1;fill-rule:evenodd;stroke:none;stroke-width:2.07019663;stroke-linecap:butt;stroke-linejoin:round;stroke-miterlimit:4;stroke-dasharray:none;stroke-dashoffset:4.19999981;stroke-opacity:1;marker:none;enable-background:accumulate" id="rect6498" d="m 407.99998,1008.3622 c -3.31371,0 -6,2.2386 -6,5 0.003,1.0827 2.37482,3 1.20898,3 h -11.20898 v 14.2109 c 0,1.1662 1.91711,-1.2077 3,-1.2109 2.76142,0 5,2.6863 5,6 0,3.3137 -2.23858,6 -5,6 -1.08271,0 -3,-2.3748 -3,-1.209 v 6.209 h 16.39453 c 0.79552,0 -0.89363,-1.2617 -0.89453,-2 0,-1.6569 1.567,-3 3.5,-3 1.933,0 3.5,1.3431 3.5,3 -10e-4,0.7385 -1.69234,2 -0.89648,2 h 8.39648 v -5.3945 c 0,-0.7956 1.2617,0.8936 2,0.8945 1.65685,0 3,-1.567 3,-3.5 0,-1.933 -1.34315,-3.5 -3,-3.5 -0.73852,10e-4 -2,1.6923 -2,0.8965 v -15.3965 a 3.9999981,4 0 0 0 -4,-4 h -5.21094 c -1.16615,0 1.20778,-1.9171 1.21094,-3 0,-2.7614 -2.68629,-5 -6,-5 z"/></g></svg>