<svg xmlns="http://www.w3.org/2000/svg" xmlns:svg="http://www.w3.org/2000/svg" id="svg2" width="48" height="48" version="1.1" viewBox="0 0 48 48"><metadata id="metadata7"/><g id="layer1" transform="translate(-384,-1004.3622)" style="display:inline"><path style="color:#000;display:inline;overflow:visible;visibility:visible;opacity:1;fill:#4022bf;fill-opacity:1;fill-rule:evenodd;stroke:none;stroke-width:2.07019663;stroke-linecap:butt;stroke-linejoin:round;stroke-miterlimit:4;stroke-dasharray:none;stroke-dashoffset:4.19999981;stroke-opacity:1;marker:none;enable-background:accumulate" id="path5654" d="m 408.00002,1008.3622 c -3.31374,0 -6,2.2386 -6,5 0.003,1.0827 2.37479,3 1.20896,3 H 392 v 14.2109 c 0,1.1662 1.91712,-1.2077 3,-1.2109 2.76143,0 5.00001,2.6863 5.00001,6 0,3.3137 -2.23858,6 -5.00001,6 -1.08269,0 -3,-2.3748 -3,-1.209 v 6.209 h 16.39453 c 0.79551,0 -0.89363,-1.2617 -0.8945,-2 0,-1.6569 1.56699,-3 3.49999,-3 1.933,0 3.5,1.3431 3.5,3 -0.001,0.7385 -1.69236,2 -0.89651,2 H 422 v -5.3946 c 0,-0.7955 1.26172,0.8937 2.00001,0.8946 1.65687,0 3,-1.567 3,-3.5 0,-1.933 -1.34313,-3.5 -3,-3.5 -0.73852,10e-4 -2.00001,1.6923 -2.00001,0.8965 v -15.3965 a 3.999998,3.9999999 0 0 0 -3.99999,-4 h -5.21095 c -1.16613,0 1.20779,-1.9171 1.21096,-3 0,-2.7614 -2.6863,-5 -6,-5 z"/></g></svg>