<svg xmlns="http://www.w3.org/2000/svg" xmlns:svg="http://www.w3.org/2000/svg" id="svg2" width="48" height="48" version="1.1" viewBox="0 0 48 48"><metadata id="metadata7"/><g id="layer1" transform="translate(-384,-1004.3622)" style="display:inline"><path style="color:#000;display:inline;overflow:visible;visibility:visible;opacity:1;fill:#747474;fill-opacity:1;fill-rule:evenodd;stroke:none;stroke-width:5.53846169;stroke-linecap:butt;stroke-linejoin:round;stroke-miterlimit:4;stroke-dasharray:none;stroke-dashoffset:4.19999981;stroke-opacity:1;marker:none;enable-background:accumulate" id="path11933" d="M 34 4 L 34 8 L 17 8 A 9 9 0 0 0 8 17 L 8 22 L 14 22 L 14 17 A 3 3 0 0 1 17 14 L 34 14 L 34 18 L 41 11 L 34 4 z M 34 26 L 34 31 A 3 3 0 0 1 31 34 L 14 34 L 14 30 L 7 37 L 14 44 L 14 40 L 31 40 A 9 9 0 0 0 40 31 L 40 26 L 34 26 z" transform="translate(384,1004.3622)"/></g></svg>