<svg xmlns="http://www.w3.org/2000/svg" xmlns:svg="http://www.w3.org/2000/svg" id="svg2" width="48" height="48" version="1.1" viewBox="0 0 48 48"><metadata id="metadata7"/><g id="layer1" transform="translate(-384,-1004.3622)" style="display:inline"><rect style="color:#000;display:inline;overflow:visible;visibility:visible;opacity:1;fill:#ff950d;fill-opacity:1;fill-rule:evenodd;stroke:none;stroke-width:6.73300362;stroke-linecap:butt;stroke-linejoin:round;stroke-miterlimit:4;stroke-dasharray:none;stroke-dashoffset:4.19999981;stroke-opacity:1;marker:none;enable-background:accumulate" id="rect7080-3" width="12" height="8.5" x="395" y="1019.362"/><rect style="color:#000;display:inline;overflow:visible;visibility:visible;opacity:1;fill:#ff950d;fill-opacity:1;fill-rule:evenodd;stroke:none;stroke-width:5.65685415;stroke-linecap:butt;stroke-linejoin:round;stroke-miterlimit:4;stroke-dasharray:none;stroke-dashoffset:4.19999981;stroke-opacity:1;marker:none;enable-background:accumulate" id="rect7082-3" width="8" height="3" x="410" y="1019.362"/><rect style="color:#000;display:inline;overflow:visible;visibility:visible;opacity:1;fill:#ff950d;fill-opacity:1;fill-rule:evenodd;stroke:none;stroke-width:6.92820358;stroke-linecap:butt;stroke-linejoin:round;stroke-miterlimit:4;stroke-dasharray:none;stroke-dashoffset:4.19999981;stroke-opacity:1;marker:none;enable-background:accumulate" id="rect7084-7" width="12" height="3" x="395" y="1030.362"/><rect id="rect7090-6" width="8" height="3" x="410" y="1024.862" style="color:#000;display:inline;overflow:visible;visibility:visible;opacity:1;fill:#ff950d;fill-opacity:1;fill-rule:evenodd;stroke:none;stroke-width:5.65685415;stroke-linecap:butt;stroke-linejoin:round;stroke-miterlimit:4;stroke-dasharray:none;stroke-dashoffset:4.19999981;stroke-opacity:1;marker:none;enable-background:accumulate"/><rect style="color:#000;display:inline;overflow:visible;visibility:visible;opacity:1;fill:#ff950d;fill-opacity:1;fill-rule:evenodd;stroke:none;stroke-width:5.65685415;stroke-linecap:butt;stroke-linejoin:round;stroke-miterlimit:4;stroke-dasharray:none;stroke-dashoffset:4.19999981;stroke-opacity:1;marker:none;enable-background:accumulate" id="rect7092-3" width="8" height="3" x="410" y="1030.362"/><path id="path7094-6" d="m 424.99999,1008.3622 -4,4 h -33 v 28 h 9 v -4 h -5 v -20 h 29 v 20 h -12 v 4 h 12 v 4 h 4 v -3 -3 h 3 v -7 h -3 v -4 h 3 v -6 h -3 v -8 l 2,-2 h 1 v -3 z m -13,32 h -18 v 4 h 18 z" style="color:#000;display:inline;overflow:visible;visibility:visible;opacity:1;fill:#747474;fill-opacity:1;fill-rule:evenodd;stroke:none;stroke-width:6;stroke-linecap:butt;stroke-linejoin:round;stroke-miterlimit:4;stroke-dasharray:none;stroke-dashoffset:4.19999981;stroke-opacity:1;marker:none;enable-background:accumulate"/><path style="color:#000;display:inline;overflow:visible;visibility:visible;opacity:1;fill:#747474;fill-opacity:1;fill-rule:evenodd;stroke:none;stroke-width:6;stroke-linecap:butt;stroke-linejoin:round;stroke-miterlimit:4;stroke-dasharray:none;stroke-dashoffset:4.19999981;stroke-opacity:1;marker:none;enable-background:accumulate" id="path6534-9" d="m 424.99999,1008.3622 -4,4 h -33 v 28 h 9 v -4 h -5 v -20 h 29 v 20 h -12 v 4 h 12 v 4 h 4 v -3 -3 h 3 v -7 h -3 v -4 h 3 v -6 h -3 v -8 l 2,-2 h 1 v -3 z m -13,32 h -18 v 4 h 18 z"/><path style="color:#000;display:inline;overflow:visible;visibility:visible;opacity:1;fill:#fafafa;fill-opacity:1;fill-rule:evenodd;stroke:none;stroke-width:2;stroke-linecap:butt;stroke-linejoin:round;stroke-miterlimit:4;stroke-dasharray:none;stroke-dashoffset:4.19999981;stroke-opacity:1;marker:none;enable-background:accumulate" id="rect14015" d="m 391.99999,1016.3622 v 20 h 5 v 4 h 12 v -4 h 12 v -20 z m 3,3 h 12 v 8.5 h -12 z m 15,0 h 8 v 3 h -8 z m 0,5.5 h 8 v 3 h -8 z m -15,5.5 h 12 v 3 h -12 z m 15,0 h 8 v 3 h -8 z"/></g></svg>