<svg xmlns="http://www.w3.org/2000/svg" xmlns:svg="http://www.w3.org/2000/svg" id="svg2" width="48" height="48" version="1.1" viewBox="0 0 48 48"><metadata id="metadata7"/><g id="layer1" transform="translate(-384,-1004.3622)" style="display:inline"><path id="path11123-2" d="M 403.10156,1013.6688 A 15.5,15.5 0 0 0 392.5,1028.3622 h 9.5 a 6,6.000001 0 0 1 4.10547,-5.6856 z M 414,1028.3622 a 6,6.000001 0 0 1 -4.10547,5.6855 l 3.00391,9.0079 A 15.5,15.5 0 0 0 423.5,1028.3622 Z" style="color:#000;display:inline;overflow:visible;visibility:visible;opacity:1;fill:#ff950d;fill-opacity:1;fill-rule:evenodd;stroke:none;stroke-width:6;stroke-linecap:butt;stroke-linejoin:round;stroke-miterlimit:4;stroke-dasharray:none;stroke-dashoffset:4.19999981;stroke-opacity:1;marker:none;enable-background:accumulate"/><path id="path11125-8" d="m 408,1008.3622 a 20,20 0 0 0 -20,20 20,20 0 0 0 20,20 20,20 0 0 0 20,-20 20,20 0 0 0 -20,-20 z m 0,3 a 17,17 0 0 1 17,17 17,17 0 0 1 -17,17 17,17 0 0 1 -17,-17 17,17 0 0 1 17,-17 z" style="color:#000;display:inline;overflow:visible;visibility:visible;opacity:1;fill:#747474;fill-opacity:1;fill-rule:evenodd;stroke:none;stroke-width:6;stroke-linecap:butt;stroke-linejoin:round;stroke-miterlimit:4;stroke-dasharray:none;stroke-dashoffset:4.19999981;stroke-opacity:1;marker:none;enable-background:accumulate"/><ellipse id="ellipse11127-3" cx="408" cy="1028.362" rx="4.5" ry="4.5" style="color:#000;display:inline;overflow:visible;visibility:visible;opacity:1;fill:#747474;fill-opacity:1;fill-rule:evenodd;stroke:none;stroke-width:6;stroke-linecap:butt;stroke-linejoin:round;stroke-miterlimit:4;stroke-dasharray:none;stroke-dashoffset:4.19999981;stroke-opacity:1;marker:none;enable-background:accumulate"/><path style="color:#000;display:inline;overflow:visible;visibility:visible;opacity:1;fill:#fafafa;fill-opacity:1;fill-rule:evenodd;stroke:none;stroke-width:2;stroke-linecap:butt;stroke-linejoin:round;stroke-miterlimit:4;stroke-dasharray:none;stroke-dashoffset:4.19999981;stroke-opacity:1;marker:none;enable-background:accumulate" id="path14044" d="m 408,1011.3622 a 17,17 0 0 0 -17,17 17,17 0 0 0 17,17 17,17 0 0 0 17,-17 17,17 0 0 0 -17,-17 z m -4.89844,2.3066 3.00391,9.0078 A 6,6.000001 0 0 0 402,1028.3622 h -9.5 a 15.5,15.5 0 0 1 10.60156,-14.6934 z M 408,1023.8622 a 4.5,4.500001 0 0 1 4.5,4.5 4.5,4.500001 0 0 1 -4.5,4.5 4.5,4.500001 0 0 1 -4.5,-4.5 4.5,4.500001 0 0 1 4.5,-4.5 z m 6,4.5 h 9.5 a 15.5,15.5 0 0 1 -10.60156,14.6934 l -3.00391,-9.0079 A 6,6.000001 0 0 0 414,1028.3622 Z"/></g></svg>