<svg xmlns="http://www.w3.org/2000/svg" xmlns:svg="http://www.w3.org/2000/svg" id="svg2" width="48" height="48" version="1.1" viewBox="0 0 48 48"><metadata id="metadata7"/><g id="layer1" transform="translate(-384,-1004.3622)" style="display:inline"><path style="color:#000;display:inline;overflow:visible;visibility:visible;opacity:1;fill:#fafafa;fill-opacity:1;fill-rule:evenodd;stroke:none;stroke-width:2;stroke-linecap:butt;stroke-linejoin:round;stroke-miterlimit:4;stroke-dasharray:none;stroke-dashoffset:4.19999981;stroke-opacity:1;marker:none;enable-background:accumulate" id="rect14065" d="m 400.00978,1011.3623 v 28 h 21.98046 v -19 h -9 v -9 z m 5.99023,10 11.375,7 -11.375,7 v -0.2305 -13.539 z"/><path style="display:inline;fill:#ff950d;fill-opacity:1;fill-rule:evenodd;stroke:none;stroke-width:.43750006px;stroke-linecap:butt;stroke-linejoin:miter;stroke-opacity:1" id="path12863" d="m 406.00001,1035.3623 11.375,-7 -11.375,-7 z"/><path id="path12865" d="m 401.00974,1008.3623 c -2.2,0 -3.99023,1.8 -3.99023,4 l -0.0195,26 c 0,2.2 1.79023,4 3.99023,4 h 20.00001 c 2.2,0 4.00976,-1.8 4.00976,-4 l -10e-6,-18 -12.00976,-12 z m -1,3 h 10.98052 2 v 9 h 9 v 2 l 1e-5,17 h -21.98052 z" style="display:inline;fill:#747474;fill-opacity:1;stroke-width:2"/><path style="display:inline;fill:#747474;fill-opacity:1;stroke-width:2" id="path12867" d="m 391.01759,1014.3623 -0.0176,30 c 0,2.2 1.78047,4 3.98047,4 h 22.01953 v -3 h -23 v -31 z"/></g></svg>