<svg xmlns="http://www.w3.org/2000/svg" xmlns:svg="http://www.w3.org/2000/svg" id="svg2" width="48" height="48" version="1.1" viewBox="0 0 48 48"><metadata id="metadata7"/><g id="layer1" transform="translate(-384,-1004.3622)" style="display:inline"><path style="color:#000;display:inline;overflow:visible;visibility:visible;opacity:1;fill:#747474;fill-opacity:1;fill-rule:evenodd;stroke:none;stroke-width:4;stroke-linecap:butt;stroke-linejoin:round;stroke-miterlimit:4;stroke-dasharray:none;stroke-dashoffset:4.19999981;stroke-opacity:1;marker:none;enable-background:accumulate" id="rect11118" d="m 396.00001,1008.3622 c -2.216,0 -4,1.784 -4,4 v 32 c 0,2.216 1.784,4 4,4 h 24 c 2.216,0 4,-1.784 4,-4 v -32 c 0,-2.216 -1.784,-4 -4,-4 z m 1,3 a 2,2 0 0 1 2,2 2,2 0 0 1 -2,2 2,2 0 0 1 -2,-2 2,2 0 0 1 2,-2 z m 22,0 a 2,2 0 0 1 2,2 2,2 0 0 1 -2,2 2,2 0 0 1 -2,-2 2,2 0 0 1 2,-2 z m -11,2 a 11,11 0 0 1 11,11 11,11 0 0 1 -10.08203,10.9551 l 1.92969,-3.2168 c 0.25747,-0.4555 0.18026,-1.0263 -0.18946,-1.3965 -0.39177,-0.3922 -1.00652,-0.4544 -1.46875,-0.1484 l -6.07812,3.6464 a 11,11 0 0 1 -6.11133,-9.8398 11,11 0 0 1 11,-11 z m 0,7 a 4,4 0 0 0 -4,4 4,4 0 0 0 4,4 4,4 0 0 0 4,-4 4,4 0 0 0 -4,-4 z m 7.69141,15.6914 4.30859,4.3086 v 4 h -24 v -4 l 3.55664,-3.5566 c -0.87539,1.4036 -0.712,3.2723 0.50781,4.4921 1.42038,1.4204 3.72416,1.4204 5.14453,0 0.17188,-0.1718 0.32673,-0.3617 0.46094,-0.5644 l 1.44531,-2.4082 a 14,14 0 0 0 0.88477,0.037 14,14 0 0 0 7.69141,-2.3086 z"/></g></svg>