<svg xmlns="http://www.w3.org/2000/svg" xmlns:svg="http://www.w3.org/2000/svg" id="svg2" width="48" height="48" version="1.1" viewBox="0 0 48 48"><metadata id="metadata7"/><g id="layer1" transform="translate(-384,-1004.3622)" style="display:inline"><rect style="color:#000;display:inline;overflow:visible;visibility:visible;opacity:1;fill:#ff950d;fill-opacity:1;fill-rule:evenodd;stroke:none;stroke-width:6;stroke-linecap:butt;stroke-linejoin:round;stroke-miterlimit:4;stroke-dasharray:none;stroke-dashoffset:4.19999981;stroke-opacity:1;marker:none;enable-background:accumulate" id="rect10842-8" width="10" height="10" x="390" y="1010.362"/><rect id="rect10848-7" width="10" height="10" x="416" y="1010.362" style="color:#000;display:inline;overflow:visible;visibility:visible;opacity:1;fill:#ff950d;fill-opacity:1;fill-rule:evenodd;stroke:none;stroke-width:6;stroke-linecap:butt;stroke-linejoin:round;stroke-miterlimit:4;stroke-dasharray:none;stroke-dashoffset:4.19999981;stroke-opacity:1;marker:none;enable-background:accumulate"/><rect style="color:#000;display:inline;overflow:visible;visibility:visible;opacity:1;fill:#ff950d;fill-opacity:1;fill-rule:evenodd;stroke:none;stroke-width:6;stroke-linecap:butt;stroke-linejoin:round;stroke-miterlimit:4;stroke-dasharray:none;stroke-dashoffset:4.19999981;stroke-opacity:1;marker:none;enable-background:accumulate" id="rect10854-1" width="10" height="10" x="403" y="-1046.362" transform="scale(1,-1)"/><path style="color:#000;display:inline;overflow:visible;visibility:visible;opacity:1;fill:#747474;fill-opacity:1;fill-rule:evenodd;stroke:none;stroke-width:6;stroke-linecap:butt;stroke-linejoin:round;stroke-miterlimit:4;stroke-dasharray:none;stroke-dashoffset:4.19999981;stroke-opacity:1;marker:none;enable-background:accumulate" id="rect10832-1" d="m 388.00001,1008.3622 v 14 h 5.5 v 3 h -5.5 v 6 h 18.5 v 3 h -5.5 v 14 h 14 v -14 h -5.5 v -3 h 18.5 v -6 h -5.5 v -3 h 5.5 v -14 h -14 v 14 h 5.5 v 3 h -23 v -3 h 5.5 v -14 z m 2,2 h 10 v 10 h -10 z m 26,0 h 10 v 10 h -10 z m -13,26 h 10 v 10 h -10 z"/></g></svg>